<?xml version="1.0" encoding="utf-8"?>
<!-- Generator: Adobe Illustrator 24.0.1, SVG Export Plug-In . SVG Version: 6.00 Build 0)  -->
<svg version="1.1" id="Layer_1" xmlns="http://www.w3.org/2000/svg" xmlns:xlink="http://www.w3.org/1999/xlink" x="0px" y="0px"
	 viewBox="0 0 860.2 665.8" style="enable-background:new 0 0 860.2 665.8;" xml:space="preserve">
<style type="text/css">
	.st0{fill:url(#SVGID_1_);}
	.st1{fill:#0D0E0B;}
	.st2{fill:#A66D29;}
	.st3{fill:#986F2A;}
	.st4{fill:#0D0C0A;}
	.st5{fill:url(#SVGID_2_);}
	.st6{fill:url(#SVGID_3_);}
	.st7{fill:#0F0F0E;}
	.st8{fill:url(#SVGID_4_);}
	.st9{fill:url(#SVGID_5_);}
	.st10{fill:url(#SVGID_6_);}
	.st11{fill:url(#SVGID_7_);}
	.st12{fill:url(#SVGID_8_);}
	.st13{fill:url(#SVGID_9_);}
	.st14{fill:url(#SVGID_10_);}
	.st15{fill:url(#SVGID_11_);}
	.st16{fill:url(#SVGID_12_);}
	.st17{fill:url(#SVGID_13_);}
	.st18{fill:url(#SVGID_14_);}
	.st19{fill:url(#SVGID_15_);}
	.st20{fill:url(#SVGID_16_);}
	.st21{fill:url(#SVGID_17_);}
</style>
<linearGradient id="SVGID_1_" gradientUnits="userSpaceOnUse" x1="57.7472" y1="401.3994" x2="105.2882" y2="616.743">
	<stop  offset="0" style="stop-color:#946E2A"/>
	<stop  offset="3.043348e-02" style="stop-color:#99732C"/>
	<stop  offset="0.185" style="stop-color:#B18D3C"/>
	<stop  offset="0.3499" style="stop-color:#C6A54D"/>
	<stop  offset="0.528" style="stop-color:#D6B75B"/>
	<stop  offset="0.7288" style="stop-color:#E1C364"/>
	<stop  offset="1" style="stop-color:#E5C867"/>
</linearGradient>
<path class="st0" d="M88.3,346.4C71,370.7-6.6,497.1,146.2,627.1c0,0-116.1-24.1-114.3-179.7c0,0-3.6-80.5,54.5-103.4
	C87.9,343.4,89.2,345.1,88.3,346.4z"/>
<path class="st1" d="M88.5,290.3v35.9c0,0-81,49-50.3,175.8c30.7,122.9,141.2,143.8,182.3,130.7c41.8-8.5,95.4-41.2,122.2-58.2
	s145.7-76.5,176.5-37.3c0,0,8,11.5,7.3,20.1c0,0-60.5-13.7-140.4,28.9s-129.6,91.5-228.9,76.8C56.5,642.5,5.5,541.9,0.3,464.8
	C0.3,464.8-9.8,346.1,88.5,290.3z"/>
<path class="st2" d="M161.3,455.9l27.9-2.5c0,0,14,66.8,116.3,128.3l-23.2,15.4C282.3,597.1,198.8,557.6,161.3,455.9z"/>
<path class="st3" d="M644.1,444.9l28.2,2.5c0,0-8.2,26.3-26.1,36.8c-16.7,9.8-44.8,35.6-48.9,40.8
	C597.3,525,632.1,483.1,644.1,444.9z"/>
<path class="st3" d="M624,600.8c0,0-34.9-7.1-35.7-41.8c-0.3-14.6,6-28.6,16.6-38.6c10.8-10.2,27.9-24.4,46.3-32.1
	C651.2,488.3,578.8,553.7,624,600.8z"/>
<path class="st3" d="M748,353v106.9l16.9-5.9l5.1-30.4C770.1,423.6,780.6,376,748,353z"/>
<rect x="101.6" y="277.7" class="st4" width="635.1" height="156.5"/>
<linearGradient id="SVGID_2_" gradientUnits="userSpaceOnUse" x1="665.4463" y1="501.7896" x2="860.1701" y2="501.7896">
	<stop  offset="3.409785e-07" style="stop-color:#E5C867"/>
	<stop  offset="0.3516" style="stop-color:#E2C464"/>
	<stop  offset="0.5392" style="stop-color:#D8BA5D"/>
	<stop  offset="0.6881" style="stop-color:#CAAA51"/>
	<stop  offset="0.8167" style="stop-color:#B99542"/>
	<stop  offset="0.9311" style="stop-color:#A37E32"/>
	<stop  offset="1" style="stop-color:#946E2A"/>
</linearGradient>
<path class="st5" d="M665.4,648.6c0,0,74,28.6,149.8-56.4S848,406.4,848,406.4s-15-39-41.2-56l24.2,78.4l-0.7,59.5l-19,46.4
	l-18.3,35.9l-30.2,30.1l-45.6,14.3L665.4,648.6z"/>
<path class="st4" d="M841.4,436.8c0,0,14.7,60.8-39.2,132.3C748.3,640.7,689,644.6,689,644.6S566.9,677,544.4,557.9
	s-226.5,15.7-226.5,15.7c-100.5-43.1-122.5-138.2-122.5-138.2H98.8V276h61.3c11.3-89.7,130.4-257.8,349-198.5
	C682.6,139.8,694,285.1,694,285.1h40.8v150.5h-99.3c0,0-13.7,47.3-39.5,72c-14.9,12.1-17.8,33.7-17.8,33.7
	c-10,67.9,65.2,85.5,98.5,75.8c52-7.7,132.8-64.3,134-163.6c-5.2-99.5-63.1-112-63.1-112v-33.8C840.9,341.7,841.4,436.8,841.4,436.8
	z M278.2,277.5c8.3-27.9,48.5-59.3,48.5-59.3c41.7-30.4,110.3-46.6,170.1-14.2c58.8,31.9,72.5,73.5,72.5,73.5h21.1
	c-19.6-52.9-63.9-79.9-63.9-79.9c-84-50.5-156.7-30.9-204.7,0S260.1,277,260.1,277L278.2,277.5z"/>
<linearGradient id="SVGID_3_" gradientUnits="userSpaceOnUse" x1="386.386" y1="98.2938" x2="436.7632" y2="326.4843">
	<stop  offset="0" style="stop-color:#946E2A"/>
	<stop  offset="3.043348e-02" style="stop-color:#99732C"/>
	<stop  offset="0.185" style="stop-color:#B18D3C"/>
	<stop  offset="0.3499" style="stop-color:#C6A54D"/>
	<stop  offset="0.528" style="stop-color:#D6B75B"/>
	<stop  offset="0.7288" style="stop-color:#E1C364"/>
	<stop  offset="1" style="stop-color:#E5C867"/>
</linearGradient>
<path class="st6" d="M658.6,277.5c0,0-17.2-146.1-200.5-178.4c-185.3-23.5-262.2,134-265.2,178.1l34.8,0.5c0,0,29.4-110,152.9-136.9
	S608.6,205,622.3,277.5H658.6z"/>
<g>
	<circle class="st7" cx="420.5" cy="15.3" r="15.3"/>
	<circle class="st7" cx="416.4" cy="630.7" r="16.7"/>
	<circle class="st7" cx="263.6" cy="61.5" r="10.4"/>
	<circle class="st7" cx="216.9" cy="101.4" r="10.4"/>
	<circle class="st7" cx="144.1" cy="195.2" r="10.4"/>
	<circle class="st7" cx="589" cy="60.5" r="12.7"/>
	<circle class="st7" cx="168.6" cy="534.7" r="10.4"/>
	<circle class="st7" cx="514.6" cy="615.6" r="10.4"/>
	<circle class="st7" cx="648" cy="557.9" r="10.4"/>
	<circle class="st7" cx="705.5" cy="199" r="10.4"/>
	<circle class="st7" cx="357.8" cy="32.3" r="6.8"/>
	<circle class="st7" cx="313.5" cy="42.7" r="6.8"/>
	<circle class="st7" cx="174.8" cy="143.9" r="6.8"/>
	<circle class="st7" cx="124.1" cy="234.1" r="6.8"/>
	<circle class="st7" cx="138.2" cy="485" r="6.8"/>
	<circle class="st7" cx="204.7" cy="570.8" r="6.8"/>
	<circle class="st7" cx="365.6" cy="622.3" r="6.8"/>
	<circle class="st7" cx="469.4" cy="616.7" r="6.8"/>
	<circle class="st7" cx="681.9" cy="515.7" r="6.8"/>
	<circle class="st7" cx="703.2" cy="483.1" r="6.8"/>
	<circle class="st7" cx="734.5" cy="231.6" r="6.8"/>
	<circle class="st7" cx="668.9" cy="137.1" r="6.8"/>
	<circle class="st7" cx="633.8" cy="104.7" r="6.8"/>
	<circle class="st7" cx="533.8" cy="41.5" r="6.8"/>
	<circle class="st7" cx="477.5" cy="22.9" r="6.8"/>
</g>
<g>
	<linearGradient id="SVGID_4_" gradientUnits="userSpaceOnUse" x1="133.6894" y1="389.2306" x2="131.0521" y2="321.4216">
		<stop  offset="0" style="stop-color:#9D712A"/>
		<stop  offset="0.1231" style="stop-color:#A1762C"/>
		<stop  offset="0.2823" style="stop-color:#AD8434"/>
		<stop  offset="0.4604" style="stop-color:#C29D45"/>
		<stop  offset="0.6173" style="stop-color:#DFBF5F"/>
		<stop  offset="1" style="stop-color:#E5C867"/>
	</linearGradient>
	<path class="st8" d="M132.4,389.3c-1.9,0-3.5-0.6-4.9-1.9c-1.3-1.4-1.9-3-1.9-4.8v-54.3c0-1.9,0.6-3.5,1.9-4.9
		c1.4-1.3,3-1.9,4.9-1.9c1.9,0,3.5,0.6,4.9,1.9c1.3,1.4,1.9,3,1.9,4.9v54.3c0,1.9-0.6,3.5-1.9,4.8
		C135.9,388.6,134.2,389.3,132.4,389.3z"/>
	<linearGradient id="SVGID_5_" gradientUnits="userSpaceOnUse" x1="184.1642" y1="390.1346" x2="181.4537" y2="320.4403">
		<stop  offset="0" style="stop-color:#9D712A"/>
		<stop  offset="0.1231" style="stop-color:#A1762C"/>
		<stop  offset="0.2823" style="stop-color:#AD8434"/>
		<stop  offset="0.4604" style="stop-color:#C29D45"/>
		<stop  offset="0.6173" style="stop-color:#DFBF5F"/>
		<stop  offset="1" style="stop-color:#E5C867"/>
	</linearGradient>
	<path class="st9" d="M152.7,328.2c0-3.2,1.5-5.3,4.5-6.4c3-1,5.5-0.4,7.5,1.9l34.6,40.4v-36c0-1.9,0.6-3.5,1.9-4.8
		c1.4-1.4,3-2,4.9-2c1.9,0,3.5,0.7,4.9,2c1.3,1.3,1.9,2.9,1.9,4.8v54.3c0,3.2-1.5,5.3-4.5,6.4c-0.7,0.3-1.5,0.4-2.3,0.4
		c-2.1,0-3.8-0.8-5.1-2.4l-34.6-40.4v36c0,1.9-0.6,3.5-1.9,4.8c-1.4,1.4-3,2-4.9,2c-1.9,0-3.5-0.7-4.9-2c-1.3-1.3-1.9-2.9-1.9-4.8
		V328.2z"/>
	<linearGradient id="SVGID_6_" gradientUnits="userSpaceOnUse" x1="257.8839" y1="390.1346" x2="255.1734" y2="320.4403">
		<stop  offset="0" style="stop-color:#9D712A"/>
		<stop  offset="0.1231" style="stop-color:#A1762C"/>
		<stop  offset="0.2823" style="stop-color:#AD8434"/>
		<stop  offset="0.4604" style="stop-color:#C29D45"/>
		<stop  offset="0.6173" style="stop-color:#DFBF5F"/>
		<stop  offset="1" style="stop-color:#E5C867"/>
	</linearGradient>
	<path class="st10" d="M226.5,328.2c0-3.2,1.5-5.3,4.5-6.4c3-1,5.5-0.4,7.5,1.9l34.6,40.4v-36c0-1.9,0.6-3.5,1.9-4.8
		c1.4-1.4,3-2,4.9-2c1.9,0,3.5,0.7,4.9,2c1.3,1.3,1.9,2.9,1.9,4.8v54.3c0,3.2-1.5,5.3-4.5,6.4c-0.7,0.3-1.5,0.4-2.3,0.4
		c-2.1,0-3.8-0.8-5.1-2.4L240,346.5v36c0,1.9-0.6,3.5-1.9,4.8c-1.4,1.4-3,2-4.9,2c-1.9,0-3.5-0.7-4.9-2c-1.3-1.3-1.9-2.9-1.9-4.8
		V328.2z"/>
	<linearGradient id="SVGID_7_" gradientUnits="userSpaceOnUse" x1="331.5689" y1="389.2539" x2="328.9299" y2="321.3982">
		<stop  offset="0" style="stop-color:#9D712A"/>
		<stop  offset="0.1231" style="stop-color:#A1762C"/>
		<stop  offset="0.2823" style="stop-color:#AD8434"/>
		<stop  offset="0.4604" style="stop-color:#C29D45"/>
		<stop  offset="0.6173" style="stop-color:#DFBF5F"/>
		<stop  offset="1" style="stop-color:#E5C867"/>
	</linearGradient>
	<path class="st11" d="M330.2,389.3c-9.4,0-17.4-3.3-24-10c-6.7-6.6-10-14.6-10-24c0-9.4,3.3-17.4,10-24c6.6-6.7,14.6-10,24-10
		c9.4,0,17.4,3.3,24,10c6.7,6.6,10,14.6,10,24c0,9.4-3.3,17.4-10,24C347.6,385.9,339.6,389.3,330.2,389.3z M330.2,335
		c-5.6,0-10.4,2-14.4,6c-4,3.9-6,8.7-6,14.4s2,10.4,6,14.4c3.9,4,8.7,6,14.4,6s10.4-2,14.4-6c4-3.9,6-8.7,6-14.4s-2-10.4-6-14.4
		C340.7,337,335.9,335,330.2,335z"/>
	<linearGradient id="SVGID_8_" gradientUnits="userSpaceOnUse" x1="404.9367" y1="389.1921" x2="402.2569" y2="320.2886">
		<stop  offset="0" style="stop-color:#9D712A"/>
		<stop  offset="0.1231" style="stop-color:#A1762C"/>
		<stop  offset="0.2823" style="stop-color:#AD8434"/>
		<stop  offset="0.4604" style="stop-color:#C29D45"/>
		<stop  offset="0.6173" style="stop-color:#DFBF5F"/>
		<stop  offset="1" style="stop-color:#E5C867"/>
	</linearGradient>
	<path class="st12" d="M423.7,325.2c0.8-1.7,2.1-2.8,3.9-3.4c1.8-0.6,3.6-0.5,5.2,0.3c1.7,0.8,2.8,2.2,3.4,4
		c0.6,1.7,0.5,3.5-0.4,5.1l-27.2,54.3c-1.2,2.5-3.2,3.8-6,3.8c-2.8,0-4.9-1.3-6.1-3.8l-27.2-54.3c-0.8-1.7-1-3.4-0.4-5.1
		c0.6-1.8,1.7-3.1,3.4-4c1.7-0.8,3.4-0.9,5.2-0.3c1.7,0.6,3,1.7,3.9,3.4l21.1,42.1L423.7,325.2z"/>
	<linearGradient id="SVGID_9_" gradientUnits="userSpaceOnUse" x1="464.0764" y1="390.3267" x2="461.4095" y2="321.7528">
		<stop  offset="0" style="stop-color:#9D712A"/>
		<stop  offset="0.1231" style="stop-color:#A1762C"/>
		<stop  offset="0.2823" style="stop-color:#AD8434"/>
		<stop  offset="0.4604" style="stop-color:#C29D45"/>
		<stop  offset="0.6173" style="stop-color:#DFBF5F"/>
		<stop  offset="1" style="stop-color:#E5C867"/>
	</linearGradient>
	<path class="st13" d="M497,379.4c0.8,1.7,1,3.4,0.4,5.2c-0.6,1.7-1.7,3-3.4,3.9c-1,0.5-2,0.8-3,0.8c-2.8,0-4.9-1.3-6.1-3.8
		l-4.9-9.8h-32.3l-4.9,9.8c-0.8,1.7-2.1,2.8-3.9,3.4c-1.8,0.6-3.6,0.5-5.2-0.4c-1.7-0.8-2.8-2.1-3.4-3.9c-0.6-1.8-0.5-3.6,0.4-5.2
		l27.2-54.3c1.2-2.3,3.2-3.4,6.1-3.4c2.8,0,4.8,1.1,6,3.4L497,379.4z M473.1,362.1l-9.3-18.8l-9.4,18.8H473.1z"/>
	<linearGradient id="SVGID_10_" gradientUnits="userSpaceOnUse" x1="522.9365" y1="389.1893" x2="520.264" y2="320.4765">
		<stop  offset="0" style="stop-color:#9D712A"/>
		<stop  offset="0.1231" style="stop-color:#A1762C"/>
		<stop  offset="0.2823" style="stop-color:#AD8434"/>
		<stop  offset="0.4604" style="stop-color:#C29D45"/>
		<stop  offset="0.6173" style="stop-color:#DFBF5F"/>
		<stop  offset="1" style="stop-color:#E5C867"/>
	</linearGradient>
	<path class="st14" d="M497.3,335c-1.9,0-3.5-0.6-4.8-1.9c-1.3-1.4-1.9-3-1.9-4.9c0-1.9,0.6-3.5,1.9-4.9c1.4-1.3,3-1.9,4.8-1.9h46.6
		c1.9,0,3.5,0.6,4.8,1.9c1.3,1.4,1.9,3,1.9,4.9c0,1.9-0.6,3.5-1.9,4.9c-1.4,1.3-3,1.9-4.8,1.9h-16.5v47.5c0,1.9-0.6,3.5-1.9,4.8
		c-1.4,1.4-3,2-4.8,2c-1.9,0-3.5-0.7-4.8-2c-1.4-1.3-2-2.9-2-4.8V335H497.3z"/>
	<linearGradient id="SVGID_11_" gradientUnits="userSpaceOnUse" x1="566.5019" y1="389.2306" x2="563.8646" y2="321.4216">
		<stop  offset="0" style="stop-color:#9D712A"/>
		<stop  offset="0.1231" style="stop-color:#A1762C"/>
		<stop  offset="0.2823" style="stop-color:#AD8434"/>
		<stop  offset="0.4604" style="stop-color:#C29D45"/>
		<stop  offset="0.6173" style="stop-color:#DFBF5F"/>
		<stop  offset="1" style="stop-color:#E5C867"/>
	</linearGradient>
	<path class="st15" d="M565.2,389.3c-1.9,0-3.5-0.6-4.8-1.9c-1.3-1.4-1.9-3-1.9-4.8v-54.3c0-1.9,0.6-3.5,1.9-4.9
		c1.4-1.3,3-1.9,4.8-1.9c1.9,0,3.5,0.6,4.8,1.9c1.3,1.4,1.9,3,1.9,4.9v54.3c0,1.9-0.6,3.5-1.9,4.8
		C568.7,388.6,567.1,389.3,565.2,389.3z"/>
	<linearGradient id="SVGID_12_" gradientUnits="userSpaceOnUse" x1="616.5894" y1="389.1921" x2="613.9097" y2="320.2886">
		<stop  offset="0" style="stop-color:#9D712A"/>
		<stop  offset="0.1231" style="stop-color:#A1762C"/>
		<stop  offset="0.2823" style="stop-color:#AD8434"/>
		<stop  offset="0.4604" style="stop-color:#C29D45"/>
		<stop  offset="0.6173" style="stop-color:#DFBF5F"/>
		<stop  offset="1" style="stop-color:#E5C867"/>
	</linearGradient>
	<path class="st16" d="M635.3,325.2c0.8-1.7,2.1-2.8,3.9-3.4c1.8-0.6,3.6-0.5,5.2,0.3c1.7,0.8,2.8,2.2,3.4,4
		c0.6,1.7,0.5,3.5-0.4,5.1l-27.2,54.3c-1.2,2.5-3.2,3.8-6,3.8c-2.8,0-4.9-1.3-6.1-3.8L581,331.2c-0.8-1.7-1-3.4-0.4-5.1
		c0.6-1.8,1.7-3.1,3.4-4c1.7-0.8,3.4-0.9,5.2-0.3c1.7,0.6,3,1.7,3.9,3.4l21.1,42.1L635.3,325.2z"/>
	<linearGradient id="SVGID_13_" gradientUnits="userSpaceOnUse" x1="687.8823" y1="390.1346" x2="685.1747" y2="320.5175">
		<stop  offset="0" style="stop-color:#9D712A"/>
		<stop  offset="0.1231" style="stop-color:#A1762C"/>
		<stop  offset="0.2823" style="stop-color:#AD8434"/>
		<stop  offset="0.4604" style="stop-color:#C29D45"/>
		<stop  offset="0.6173" style="stop-color:#DFBF5F"/>
		<stop  offset="1" style="stop-color:#E5C867"/>
	</linearGradient>
	<path class="st17" d="M663.2,389.3c-1.9,0-3.5-0.6-4.8-1.9c-1.3-1.4-1.9-3-1.9-4.8v-54.3c0-1.9,0.6-3.5,1.9-4.9
		c1.4-1.3,3-1.9,4.8-1.9h46.6c1.9,0,3.5,0.6,4.9,1.9c1.3,1.4,1.9,3,1.9,4.9c0,1.9-0.6,3.5-1.9,4.9c-1.4,1.3-3,1.9-4.9,1.9H670v13.6
		h35.9c1.9,0,3.5,0.6,4.8,1.9c1.4,1.4,2,3,2,4.8c0,1.9-0.7,3.5-2,4.9c-1.3,1.3-2.9,1.9-4.8,1.9H670v13.6h39.8c1.9,0,3.5,0.6,4.9,1.9
		c1.3,1.4,1.9,3,1.9,4.8c0,1.9-0.6,3.5-1.9,4.8c-1.4,1.3-3,1.9-4.9,1.9H663.2z"/>
	<linearGradient id="SVGID_14_" gradientUnits="userSpaceOnUse" x1="335.478" y1="481.3259" x2="333.3401" y2="426.3567">
		<stop  offset="0" style="stop-color:#9D712A"/>
		<stop  offset="0.1231" style="stop-color:#A1762C"/>
		<stop  offset="0.2823" style="stop-color:#AD8434"/>
		<stop  offset="0.4604" style="stop-color:#C29D45"/>
		<stop  offset="0.6173" style="stop-color:#DFBF5F"/>
		<stop  offset="1" style="stop-color:#E5C867"/>
	</linearGradient>
	<path class="st18" d="M357.2,480.5c-1.5,0-2.7-0.5-3.8-1.5c-1-1.1-1.5-2.3-1.5-3.8v-27.2l-13.3,16.8c-1,1.3-2.4,2-4.2,2
		c-1.8,0-3.2-0.7-4.2-2l-13.3-16.8v27.2c0,1.5-0.5,2.7-1.5,3.8c-1.1,1-2.3,1.5-3.8,1.5c-1.5,0-2.7-0.5-3.8-1.5
		c-1-1.1-1.5-2.3-1.5-3.8v-42.6c0-2.5,1.2-4.2,3.6-5c2.4-0.9,4.4-0.3,5.9,1.7l18.6,23.6l18.6-23.6c1.6-2,3.5-2.6,5.9-1.7
		c2.4,0.8,3.6,2.5,3.6,5v42.6c0,1.5-0.5,2.7-1.5,3.8C359.9,480,358.7,480.5,357.2,480.5z"/>
	<linearGradient id="SVGID_15_" gradientUnits="userSpaceOnUse" x1="397.7635" y1="480.4588" x2="395.6958" y2="427.2929">
		<stop  offset="0" style="stop-color:#9D712A"/>
		<stop  offset="0.1231" style="stop-color:#A1762C"/>
		<stop  offset="0.2823" style="stop-color:#AD8434"/>
		<stop  offset="0.4604" style="stop-color:#C29D45"/>
		<stop  offset="0.6173" style="stop-color:#DFBF5F"/>
		<stop  offset="1" style="stop-color:#E5C867"/>
	</linearGradient>
	<path class="st19" d="M396.7,480.5c-7.3,0-13.6-2.6-18.8-7.8c-5.2-5.2-7.8-11.4-7.8-18.8s2.6-13.6,7.8-18.8
		c5.2-5.2,11.4-7.8,18.8-7.8c7.3,0,13.6,2.6,18.8,7.8c5.2,5.2,7.8,11.4,7.8,18.8s-2.6,13.6-7.8,18.8
		C410.3,477.9,404.1,480.5,396.7,480.5z M396.7,437.9c-4.4,0-8.2,1.6-11.2,4.7c-3.1,3.1-4.7,6.8-4.7,11.2c0,4.4,1.6,8.2,4.7,11.2
		c3.1,3.1,6.8,4.7,11.2,4.7c4.4,0,8.2-1.6,11.2-4.7c3.1-3.1,4.7-6.8,4.7-11.2c0-4.4-1.6-8.2-4.7-11.2
		C404.9,439.5,401.1,437.9,396.7,437.9z"/>
	<linearGradient id="SVGID_16_" gradientUnits="userSpaceOnUse" x1="452.8295" y1="480.4427" x2="450.7511" y2="427.0026">
		<stop  offset="0" style="stop-color:#9D712A"/>
		<stop  offset="0.1231" style="stop-color:#A1762C"/>
		<stop  offset="0.2823" style="stop-color:#AD8434"/>
		<stop  offset="0.4604" style="stop-color:#C29D45"/>
		<stop  offset="0.6173" style="stop-color:#DFBF5F"/>
		<stop  offset="1" style="stop-color:#E5C867"/>
	</linearGradient>
	<path class="st20" d="M469.7,427.3c1.5,0,2.7,0.5,3.8,1.5c1,1.1,1.5,2.3,1.5,3.8v24.3c0,6.5-2.3,12-6.9,16.6
		c-4.6,4.6-10.2,6.9-16.6,6.9c-6.5,0-12-2.3-16.6-6.9c-4.6-4.6-6.9-10.2-6.9-16.6c0-1.5,0.5-2.7,1.5-3.7c1.1-1.1,2.3-1.6,3.8-1.6
		s2.7,0.5,3.8,1.6c1,1,1.5,2.3,1.5,3.7c0,3.5,1.3,6.6,3.8,9.1c2.5,2.5,5.6,3.8,9.1,3.8c3.5,0,6.6-1.3,9.1-3.8
		c2.5-2.5,3.8-5.6,3.8-9.1v-19h-20.5c-1.5,0-2.7-0.5-3.7-1.5c-1.1-1.1-1.6-2.3-1.6-3.8c0-1.5,0.5-2.7,1.6-3.8c1-1,2.3-1.5,3.7-1.5
		H469.7z"/>
	<linearGradient id="SVGID_17_" gradientUnits="userSpaceOnUse" x1="509.4832" y1="480.4588" x2="507.4155" y2="427.2929">
		<stop  offset="0" style="stop-color:#9D712A"/>
		<stop  offset="0.1231" style="stop-color:#A1762C"/>
		<stop  offset="0.2823" style="stop-color:#AD8434"/>
		<stop  offset="0.4604" style="stop-color:#C29D45"/>
		<stop  offset="0.6173" style="stop-color:#DFBF5F"/>
		<stop  offset="1" style="stop-color:#E5C867"/>
	</linearGradient>
	<path class="st21" d="M508.4,480.5c-7.3,0-13.6-2.6-18.8-7.8c-5.2-5.2-7.8-11.4-7.8-18.8s2.6-13.6,7.8-18.8
		c5.2-5.2,11.4-7.8,18.8-7.8c7.3,0,13.6,2.6,18.8,7.8c5.2,5.2,7.8,11.4,7.8,18.8s-2.6,13.6-7.8,18.8
		C522.1,477.9,515.8,480.5,508.4,480.5z M508.4,437.9c-4.4,0-8.2,1.6-11.2,4.7c-3.1,3.1-4.7,6.8-4.7,11.2c0,4.4,1.6,8.2,4.7,11.2
		c3.1,3.1,6.8,4.7,11.2,4.7c4.4,0,8.2-1.6,11.2-4.7c3.1-3.1,4.7-6.8,4.7-11.2c0-4.4-1.6-8.2-4.7-11.2
		C516.6,439.5,512.9,437.9,508.4,437.9z"/>
</g>
</svg>
