<?xml version="1.0" encoding="utf-8"?>
<!-- Generator: Adobe Illustrator 24.1.1, SVG Export Plug-In . SVG Version: 6.00 Build 0)  -->
<svg version="1.1" id="Layer_1" xmlns="http://www.w3.org/2000/svg" xmlns:xlink="http://www.w3.org/1999/xlink" x="0px" y="0px"
	 viewBox="0 0 3000 426" style="enable-background:new 0 0 3000 426;" xml:space="preserve">
<style type="text/css">
	.st0{opacity:0.1;fill-rule:evenodd;clip-rule:evenodd;fill:url(#SVGID_1_);enable-background:new    ;}
	.st1{opacity:0.15;fill-rule:evenodd;clip-rule:evenodd;fill:url(#Ellipse_1_copy_1_);enable-background:new    ;}
	.st2{fill-rule:evenodd;clip-rule:evenodd;fill:#FFFFFF;}
	.st3{fill-rule:evenodd;clip-rule:evenodd;fill:#FF8302;}
</style>
<linearGradient id="SVGID_1_" gradientUnits="userSpaceOnUse" x1="182.6834" y1="-53.4999" x2="1315.7524" y2="-53.4999" gradientTransform="matrix(1 0 0 -1 0 428)">
	<stop  offset="0" style="stop-color:#FFFFFF"/>
	<stop  offset="1" style="stop-color:#FFFFFF;stop-opacity:0"/>
</linearGradient>
<path class="st0" d="M613.7,129.5c303.7-47.9,610.6,70.8,685.5,265.2s-110.7,390.8-414.4,438.7s-610.6-70.8-685.5-265.2
	S309.9,177.4,613.7,129.5z"/>
<linearGradient id="Ellipse_1_copy_1_" gradientUnits="userSpaceOnUse" x1="2821.429" y1="-389" x2="2228.571" y2="427" gradientTransform="matrix(1 0 0 -1 0 428)">
	<stop  offset="0.271" style="stop-color:#FFFFFF"/>
	<stop  offset="0.541" style="stop-color:#FFFFFF;stop-opacity:0"/>
	<stop  offset="1" style="stop-color:#FFFFFF"/>
</linearGradient>
<path id="Ellipse_1_copy" class="st1" d="M2372.5,13c341.8-53.9,687.1,79.7,771.3,298.4S3019.3,751.1,2677.5,805
	s-687.1-79.7-771.3-298.4S2030.7,66.9,2372.5,13z"/>
<path class="st2" d="M3000,426H0v-69c0.5,0,1,0,1.6,0c192.1,32.5,517.5,60,726.6,30c104.7-15.1,204.3-44.6,298.4-73
	c68.8-17.2,139.5-24.3,226.6-30c63.5-2.1,135.4,7.8,185.9,16c68.7,11.1,135.2,16.1,215.6,21c33.5,0,63.5-2,95.3-2
	c16.1,0,63.5-4,79.7-4c54.7-3.7,78.1-5.3,132.8-9c39.6-4.7,79.2-5.3,118.8-10l65.6,20c42.6,10.9,90.2,17.7,139.1,24
	c312.4,29.6,552.9-48.9,714.1-124L3000,426L3000,426z"/>
<path class="st3" d="M1528.1,201c196.2-2.6,318.8,15.4,443.8,57c20.2,8,89.7,30,107.8,38c-51.9,6.8-317,27.7-396.9,26
	c-24.8,0.4-101.6-4.6-140.6-9c-78.1-8.7-168.1-28-246.9-28c-113.5,0-182.9,11.3-225,20c-28.1,6.5-45.8,10.9-60.9,14
	c23.4-8,62.5-21,85.9-29c76.3-28.7,109.1-40,178.1-58C1394.6,200.3,1505.3,201,1528.1,201z"/>
</svg>
